<svg id="svg" version="1.1" xmlns="http://www.w3.org/2000/svg" xmlns:xlink="http://www.w3.org/1999/xlink" width="400" viewBox="0, 0, 400,400"><g id="svgg"><path id="path0" d="M37.800 165.579 C 25.976 167.096,18.400 175.055,18.400 185.958 C 18.400 196.713,22.861 201.624,36.285 205.649 C 46.478 208.704,49.152 211.070,48.035 216.041 C 46.529 222.746,38.421 223.725,29.054 218.332 C 23.218 214.973,22.104 215.290,18.189 221.433 L 15.473 225.693 17.036 227.054 C 19.427 229.136,26.876 232.655,31.000 233.652 C 49.392 238.097,63.728 227.983,63.143 210.975 C 62.820 201.553,58.511 197.236,45.000 192.796 C 34.473 189.337,31.988 187.045,33.815 182.480 C 35.832 177.438,42.361 176.683,50.261 180.578 C 56.156 183.486,57.038 183.153,60.379 176.765 L 62.529 172.653 61.165 171.479 C 56.338 167.326,45.504 164.590,37.800 165.579 M97.471 165.615 C 88.580 166.616,81.328 170.149,75.619 176.262 C 63.635 189.095,64.030 212.975,76.435 225.562 C 87.954 237.250,110.597 237.841,122.131 226.755 C 125.380 223.632,125.429 224.102,121.435 220.006 C 116.763 215.212,116.530 215.153,112.678 217.791 C 105.190 222.918,94.962 222.315,89.208 216.408 C 81.729 208.730,81.285 193.512,88.288 184.883 C 93.638 178.291,104.124 176.790,112.248 181.453 C 117.771 184.623,118.292 184.488,122.627 178.765 C 126.106 174.171,126.103 174.351,122.736 171.800 C 116.238 166.877,106.796 164.566,97.471 165.615 M356.200 165.617 C 336.786 167.757,324.816 182.185,325.714 202.361 C 326.309 215.706,332.473 226.002,342.967 231.176 C 356.012 237.609,374.809 234.784,382.355 225.257 L 383.674 223.591 379.928 219.795 C 375.518 215.327,374.851 215.132,371.845 217.428 C 364.594 222.965,354.079 222.524,347.968 216.427 C 340.167 208.644,339.941 192.416,347.520 184.313 C 353.505 177.915,363.187 176.919,371.635 181.834 C 376.401 184.607,377.081 184.396,381.266 178.845 L 384.466 174.600 382.468 172.758 C 376.486 167.242,366.382 164.495,356.200 165.617 M131.600 200.000 L 131.600 234.000 153.400 234.000 L 175.200 234.000 175.200 227.800 L 175.200 221.600 161.400 221.600 L 147.600 221.600 147.600 213.800 L 147.600 206.000 158.200 206.000 L 168.800 206.000 168.800 200.000 L 168.800 194.000 158.200 194.000 L 147.600 194.000 147.600 186.200 L 147.600 178.400 161.400 178.400 L 175.200 178.400 175.200 172.200 L 175.200 166.000 153.400 166.000 L 131.600 166.000 131.600 200.000 M183.600 200.000 L 183.600 234.000 205.600 234.000 L 227.600 234.000 227.600 227.800 L 227.600 221.600 213.800 221.600 L 200.000 221.600 200.000 213.800 L 200.000 206.000 210.600 206.000 L 221.200 206.000 221.200 200.000 L 221.200 194.000 210.600 194.000 L 200.000 194.000 200.000 186.200 L 200.000 178.400 213.800 178.400 L 227.600 178.400 227.600 172.200 L 227.600 166.000 205.600 166.000 L 183.600 166.000 183.600 200.000 M235.200 200.000 L 235.200 234.000 242.196 234.000 L 249.193 234.000 249.296 213.116 L 249.400 192.231 265.458 212.416 C 274.290 223.517,281.940 232.867,282.458 233.194 C 283.138 233.622,284.932 233.828,288.900 233.932 L 294.400 234.077 294.400 199.943 L 294.400 165.809 287.405 172.795 L 280.410 179.782 280.305 193.859 L 280.200 207.937 264.000 187.517 C 245.509 164.209,247.488 166.000,240.213 166.000 L 235.200 166.000 235.200 200.000 M311.496 173.904 L 303.600 181.807 303.600 207.904 L 303.600 234.000 311.600 234.000 L 319.600 234.000 319.600 200.000 C 319.600 181.300,319.553 166.000,319.496 166.000 C 319.439 166.000,315.839 169.557,311.496 173.904 " stroke="none" fill="#fff" fill-rule="evenodd"></path><path id="path1" d="" stroke="none" fill="#fff" fill-rule="evenodd"></path><path id="path2" d="" stroke="none" fill="#080c1c" fill-rule="evenodd"></path><path id="path3" d="" stroke="none" fill="#fff" fill-rule="evenodd"></path><path id="path4" d="" stroke="none" fill="#fff" fill-rule="evenodd"></path><path id="path5" d="" stroke="none" fill="#fff" fill-rule="evenodd"></path><path id="path6" d="" stroke="none" fill="#fff" fill-rule="evenodd"></path><path id="path7" d="" stroke="none" fill="#fff" fill-rule="evenodd"></path><path id="path8" d="" stroke="none" fill="#fcfdff" fill-rule="evenodd"></path></g></svg>